<?xml version="1.0" standalone="no"?>
<!DOCTYPE svg PUBLIC "-//W3C//DTD SVG 20010904//EN"
 "http://www.w3.org/TR/2001/REC-SVG-20010904/DTD/svg10.dtd">
<svg version="1.0" xmlns="http://www.w3.org/2000/svg"
 width="123.000000pt" height="123.000000pt" viewBox="0 0 123.000000 123.000000"
 preserveAspectRatio="xMidYMid meet">
<metadata>
Created by potrace 1.14, written by Peter Selinger 2001-2017
</metadata>
<g transform="translate(0.000000,123.000000) scale(0.100000,-0.100000)"
fill="#000000" stroke="none">
<path d="M311 1101 c-37 -37 -77 -118 -70 -140 6 -17 78 47 98 87 24 49 34 92
21 92 -5 0 -27 -17 -49 -39z"/>
<path d="M842 1093 c13 -51 51 -104 88 -126 27 -16 30 -16 30 -2 0 47 -83 165
-116 165 -9 0 -10 -9 -2 -37z"/>
<path d="M194 1084 c-18 -41 -22 -160 -6 -176 16 -16 45 69 45 132 0 79 -16
98 -39 44z"/>
<path d="M975 1099 c-13 -41 -8 -119 10 -159 21 -47 34 -51 36 -12 1 15 3 43
4 62 2 38 -11 84 -31 113 -11 18 -12 18 -19 -4z"/>
<path d="M122 981 c-20 -65 -8 -181 18 -181 14 0 32 98 27 143 -11 85 -27 99
-45 38z"/>
<path d="M1042 980 c-12 -49 -9 -125 7 -165 l13 -30 12 23 c24 45 15 189 -13
206 -5 3 -13 -12 -19 -34z"/>
<path d="M289 962 c-53 -28 -125 -105 -114 -123 10 -16 88 32 138 83 71 74 64
86 -24 40z"/>
<path d="M851 963 c53 -71 143 -140 170 -131 22 7 -49 94 -98 121 -60 32 -93
37 -72 10z"/>
<path d="M38 898 c-14 -40 51 -188 82 -188 15 0 2 79 -20 125 -25 51 -56 83
-62 63z"/>
<path d="M1132 879 c-37 -45 -72 -156 -55 -173 7 -7 46 41 66 80 16 32 29 112
18 118 -3 2 -16 -9 -29 -25z"/>
<path d="M200 818 c-32 -34 -47 -68 -55 -122 -10 -61 8 -59 48 5 24 40 48 139
33 139 -3 0 -15 -10 -26 -22z"/>
<path d="M385 653 l0 -188 125 0 c154 -1 218 9 280 40 63 32 93 74 97 139 5
59 -15 98 -69 139 -59 45 -110 55 -278 56 l-155 2 0 -188z m317 143 c54 -27
79 -76 79 -151 0 -108 -59 -155 -203 -159 -112 -4 -108 -11 -108 168 0 84 3
156 7 160 4 4 47 6 96 5 68 -1 98 -7 129 -23z"/>
<path d="M970 816 c0 -45 25 -109 57 -143 l34 -38 -5 53 c-6 60 -29 107 -63
130 -21 13 -23 13 -23 -2z"/>
<path d="M36 733 c12 -52 35 -98 61 -125 36 -38 47 -35 38 9 -9 47 -28 85 -60
118 -34 33 -47 32 -39 -2z"/>
<path d="M1132 735 c-32 -26 -76 -124 -70 -154 7 -30 77 57 94 116 9 30 14 57
11 59 -2 3 -18 -7 -35 -21z"/>
<path d="M176 644 c-13 -33 -5 -111 15 -154 19 -39 22 -43 29 -25 14 33 11 98
-6 148 -17 49 -28 58 -38 31z"/>
<path d="M996 633 c-8 -17 -18 -49 -22 -71 -8 -48 3 -115 17 -107 32 20 53
151 31 192 -8 14 -12 12 -26 -14z"/>
<path d="M14 602 c21 -41 88 -96 131 -110 l36 -11 -17 27 c-36 58 -88 100
-142 117 -23 7 -23 6 -8 -23z"/>
<path d="M1143 604 c-35 -17 -113 -96 -113 -114 0 -28 107 34 139 79 39 57 34
64 -26 35z"/>
<path d="M254 461 c4 -24 13 -55 20 -70 18 -33 84 -97 92 -88 15 15 -31 114
-73 157 l-45 45 6 -44z"/>
<path d="M903 453 c-36 -39 -50 -65 -63 -119 -6 -27 -4 -32 22 -43 40 -18 131
-9 193 19 47 21 49 23 26 31 -42 16 -142 1 -186 -28 -36 -24 -37 -13 -2 30 36
43 75 147 56 147 -6 0 -26 -17 -46 -37z"/>
<path d="M108 453 c30 -42 53 -60 105 -83 61 -27 73 -23 45 17 -31 42 -107 93
-141 93 l-28 0 19 -27z"/>
<path d="M1051 469 c-37 -11 -136 -104 -126 -119 14 -23 139 51 168 100 20 33
16 35 -42 19z"/>
<path d="M396 340 c11 -18 32 -43 48 -56 35 -30 106 -67 113 -60 3 3 -6 23
-20 45 -26 38 -86 81 -136 96 l-23 7 18 -32z"/>
<path d="M140 350 l-44 -5 24 -16 c45 -28 88 -41 142 -43 29 -1 59 0 66 2 22
8 -6 30 -56 46 -66 20 -81 22 -132 16z"/>
<path d="M744 336 c-44 -20 -124 -96 -124 -117 0 -20 92 33 145 83 65 62 59
71 -21 34z"/>
<path d="M280 263 c-8 -3 -26 -10 -40 -15 -24 -9 -24 -10 -6 -20 48 -27 246
-4 217 25 -11 11 -148 20 -171 10z"/>
<path d="M775 256 c-38 -12 -39 -13 -18 -24 12 -7 42 -15 67 -18 52 -7 156 3
156 16 0 26 -144 44 -205 26z"/>
<path d="M425 213 c-37 -9 -85 -35 -79 -44 3 -5 31 -9 62 -9 43 0 53 -3 44
-12 -16 -16 -15 -23 4 -42 21 -21 27 -20 56 9 l25 25 11 -25 c6 -14 16 -25 22
-25 7 0 4 12 -6 29 -15 26 -16 32 -3 47 13 16 12 16 -7 4 -16 -10 -26 -10 -40
-2 -18 11 -17 12 6 13 67 6 91 3 111 -12 22 -16 22 -18 5 -44 -10 -15 -14 -30
-10 -33 4 -4 8 -2 11 3 13 36 20 37 53 14 l32 -24 19 24 c14 17 17 27 9 35
-18 18 -11 21 50 20 33 0 60 3 60 7 0 10 -77 40 -117 45 -19 2 -53 -1 -76 -6
-68 -17 -71 -17 -102 -8 -36 11 -112 17 -140 11z m275 -48 c9 -8 22 -15 28
-15 7 0 12 -9 12 -20 0 -24 -18 -26 -48 -4 -22 15 -22 41 0 28 7 -4 8 -2 4 4
-4 6 -13 9 -21 6 -8 -3 -24 2 -37 11 -23 17 -23 17 11 11 19 -3 42 -13 51 -21z
m-180 -14 c0 -16 -32 -42 -48 -39 -25 5 -25 27 0 37 30 13 48 13 48 2z"/>
</g>
</svg>
